_________________________  Visit us at _________________________
  
http://p2pdl.com  ____________________________  http://p2pdl.com

London Pitbulls 2012 BRRip 720p x264 AAC - PRiSTiNE

Genre: Crime
Plot: Damien (Nick Nevern) is a London policeman, having joined the force from a difficult 
upbringing. In his spare time he is a borderline football hooligan and while on duty he 
frequently disregards proper rules to either get a friendΓÇÖs charges lifted or put the 
boot in on a suspect who he doesnΓÇÖt like. As tensions in London build towards the riots 
of summer 2011, Damien tries to keep his building rage under control while trying to 
establish a relationship with Louise (Kellie Shirley) a new police officer he has been partnered with.
Director: Simon Phillips
Stars: Nick Nevern, Kellie Shirley, Jenna Harrison
Rated: PG 13

Info: 
http://www.imdb.com/title/tt2241475/

General
Complete name                  : London Pitbulls 2012 BRRip 720p x264 AAC - PRiSTiNE.mp4
Format                         : MPEG-4
Format profile                 : Base Media
Codec ID                       : isom
File size                      : 469 MiB
Duration                       : 1h 23mn
Overall bit rate mode          : Variable
Overall bit rate               : 784 Kbps

Source                         : 1080p BluRay x264-EPHEMERiD (Thanks)

Video
Format/Info                    : Advanced Video Codec
Format profile                 : High 10@L4.1
Width                          : 1 280 pixels
Height                         : 528 pixels
Display aspect ratio           : 2.40:1
Frame rate mode                : Constant
Frame rate                     : 23.976 fps
Bit depth                      : 10 bits
Scan type                      : Progressive
Bits/(Pixel*Frame)             : 0.043
Stream size                    : 417 MiB (89%)
Writing library                : x264 core 129 r2245 bc13772

Audio
Format                         : AAC
Bit rate mode                  : Variable
Bit rate                       : 83.9 Kbps
Channel(s)                     : 2 channels
Channel positions              : Front: L R
Sampling rate                  : 48.0 KHz / 24.0 KHz
Stream size                    : 50.2 MiB (11%)
Language                       : English

Subtitle                       : No

Screens: 
http://www.shotpix.com/images/11355949284803048428.jpg 
http://www.shotpix.com/images/56954300950314599734.jpg 
http://www.shotpix.com/images/46476639666707356906.jpg 
http://www.shotpix.com/images/79105263073198513881.jpg

Thumbs: 
http://www.shotpix.com/images/23644272157158409597.jpg

----------------------------------------------------------------------------------------------------
Encoded using revolutionary 10bit encoding, which enables us to provide you more crispier 
and sharper images at small sizes, just make sure you follow our instructions without a fault.
Recommend to you to use latest version of VLC player. Install K-Lite Codec Pack or shark007 codecs
in case of any kind of problem in playback (For non-VLC Media Player users). Alternatively, install
Core AVC codecs, the fastest decoder that there is coupled with Community Center Codec Pack and play
on Windows Media Player Classic. Check sample to be sure.
Enjoy!